<svg width="24" height="24" viewBox="0 0 24 24" fill="none" xmlns="http://www.w3.org/2000/svg">
<g id="pin-02">
<path id="Icon" d="M8.37658 15.6164L2.71973 21.2732M11.6943 6.64188L10.1334 8.20276C10.0061 8.33009 9.9424 8.39375 9.86986 8.44433C9.80548 8.48923 9.73604 8.5264 9.66297 8.55506C9.58065 8.58735 9.49236 8.60501 9.3158 8.64032L5.65133 9.37321C4.69903 9.56367 4.22288 9.6589 4.00012 9.90996C3.80605 10.1287 3.71743 10.4214 3.75758 10.711C3.80367 11.0434 4.14703 11.3868 4.83375 12.0735L11.9195 19.1593C12.6062 19.846 12.9496 20.1893 13.282 20.2354C13.5716 20.2756 13.8643 20.1869 14.083 19.9929C14.3341 19.7701 14.4293 19.294 14.6198 18.3417L15.3527 14.6772C15.388 14.5006 15.4056 14.4124 15.4379 14.33C15.4666 14.257 15.5038 14.1875 15.5487 14.1231C15.5992 14.0506 15.6629 13.9869 15.7902 13.8596L17.3511 12.2987C17.4325 12.2173 17.4732 12.1766 17.518 12.1411C17.5577 12.1095 17.5998 12.081 17.6439 12.0558C17.6935 12.0275 17.7464 12.0048 17.8522 11.9595L20.3466 10.8905C21.0743 10.5786 21.4381 10.4227 21.6034 10.1707C21.7479 9.95031 21.7996 9.68181 21.7473 9.42354C21.6874 9.12819 21.4075 8.84828 20.8477 8.28846L15.7045 3.14532C15.1447 2.58549 14.8648 2.30558 14.5695 2.24571C14.3112 2.19335 14.0427 2.24506 13.8223 2.38959C13.5703 2.55487 13.4144 2.91872 13.1025 3.64642L12.0335 6.14078C11.9882 6.24659 11.9655 6.2995 11.9372 6.34911C11.912 6.39319 11.8835 6.43528 11.8519 6.47503C11.8164 6.51977 11.7757 6.56047 11.6943 6.64188Z" stroke="black" stroke-width="2" stroke-linecap="round" stroke-linejoin="round"/>
</g>
</svg>
